<?xml version="1.0" encoding="utf-8"?>
<!-- Generator: Adobe Illustrator 20.1.0, SVG Export Plug-In . SVG Version: 6.00 Build 0)  -->
<svg version="1.1" id="Layer_1" xmlns="http://www.w3.org/2000/svg" xmlns:xlink="http://www.w3.org/1999/xlink" x="0px" y="0px"
	 viewBox="0 0 200.3 80.6" style="enable-background:new 0 0 200.3 80.6;" xml:space="preserve">
<g>
	<path d="M197.9,61.2c-1.5,0.2-3.2,0.3-4.7,0.5c0,0.1,0,0.1,0,0.1c-3,21.6-32.8,25.1-33.5,8.2c-0.3-7.7,14.5-9.9,29.3-11.3
		c0.5-13.8-19.9,7-27.1-5.7c-6.3-11.2,18.3-22.3,21-20c8.1,7,4.3,8.2-1.7,10.4c-11.9,4.2-7.3,5.1-5.7,4.6c9.5-2.8,18-1.3,17.9,10.3
		c1.6-0.1,3.2-0.2,4.7-0.3C201,57.6,201.2,60.9,197.9,61.2z M188.5,62.1c-11.4,1.3-21.3,3-20.2,6.7
		C170.4,75.7,185.2,77.2,188.5,62.1z"/>
</g>
<g>
	<path d="M147.4,55.6c-0.9,0-0.9-7.5,0.1-14.5c1.3-8.6,14.9-4.2,11.4-2.4c-3.7,1.9-5.5,10.8-7.8,15
		C150.3,55.2,147.9,55.7,147.4,55.6z"/>
</g>
<g>
	<path d="M52.8,25.9c3,6-6.2,10.2-10.4,5.6c-1.8-1.9-0.9-5.7,3.3-7.7C47.8,22.8,50.8,21.9,52.8,25.9z"/>
</g>
<g>
	<path d="M71.5,23.3c3.2,6.6-6.7,11.1-11.3,6.1c-1.9-2.1-1-6.2,3.6-8.4C66.1,19.9,69.4,18.8,71.5,23.3z"/>
</g>
<g>
	<path d="M36.2,76.4c-9.9,6.6-17.8,5.2-15.3-13.5c1.8-13.5-1.2-14.3-3.9-11.7c-3.6,3.4-5.8,12.1-5.9,20.4c0.3,2.1,0.8,4.1,1.3,5.9
		c0.4,2-6.1,4.1-10,1.3C1.1,77.8,0,68,0,54.6c0-11,1.5-18.5,2.8-18.9c10.1-2.7,11.7,1.7,9.5,9.9c-0.9,3.4-1.5,6.7-1.7,9.8
		c2.1-5.8,5.1-10.5,8.5-12.6c9.3-5.8,17-3.1,15.6,8.4C32.2,71.8,32,74.6,34.2,73C37,71.2,38.8,74.7,36.2,76.4z"/>
</g>
<g>
	<path d="M68.9,73.9c-2.7,4.3-9.8,6.4-16.6,5.7c-9.7-1-15.7-9.6-13.4-22.5C41.4,43.2,61.5,34.3,68,44.3c4.7,7.2-2.7,19.9-14.5,24.6
		c-0.2,0.1-0.4,0.1-0.6,0.2c2.4,6.4,8.2,9.3,13.8,2.9C69.3,69,71.2,70.2,68.9,73.9z M51.9,64.6c7.3-5.2,9.8-16.6,7.8-19.8
		c-2.2-3.4-6.4,1.9-7.8,14.6C51.7,61.3,51.7,63,51.9,64.6z"/>
</g>
<g>
	<path d="M104.1,55.7c-2,3.1-4.9,5.4-7.5,6.3c-3,0.9-6.5,0.1-6.5-3.4c0-1.3,1.1-4.2,4.5-5.9c-0.2-2.4-1.7-3-2.9-2.1
		c-4.2,3.2-9.3,15.2-8,23.9c0.1,0.2,0.1,0.4,0.1,0.6c0.2,0.8,0.4,1.5,0.7,2.3c0.7,2-6.1,4.1-10,1.2c-1.3-1-2-8.7-2-22
		c0-11,2.4-20.7,3.8-21c8-2.2,12.7,1.6,10.2,9c-1.5,4.2-2.8,8.4-3.6,12.9c3.1-8.3,8.2-16,12.3-18c7.3-3.6,12.6,1.2,11.1,9.7
		c-0.1,0.1-0.1,0.5-0.1,0.6c-0.1,0.7-0.7,2.9-0.5,2.2C105.2,54.1,104.7,54.9,104.1,55.7z"/>
</g>
<g>
	<path d="M141.8,32.3c-0.6,2.9-1,6-1.4,9.4c-1.3,12.5-0.8,23.6,0.8,28.6c0.9,2.7,4.3,6.1,7.6,2.5c3.6-4,7.5-1.7,2.7,3
		c-2.9,2.9-8.4,4.8-13.8,4.3c-3.9-0.5-6.3-3-7.7-6.8c-0.6,1.1-1.2,2.1-2,2.9c-2.7,2.7-5.9,4.3-10,3.8c-8.3-0.9-13.2-9.8-10.9-22.6
		c2.4-13.4,14.2-18.3,21-14.7c0.1-1.7,0.3-3.4,0.4-5.1c0.1-0.3,0.1-0.7,0.1-1c-2,0.4-4.1,0.8-6.2,1.2c-30,5-19.7-19.3-12.4-25.7
		c8.3-7.1,9.2-2.3,6.6-0.7c-4.6,2.9-6.6,19.8,6.6,19.8c2.2,0,4.2-0.1,6.2-0.3C133.5,8.1,146-2.9,156.1,0.7
		C167.5,4.5,166.4,22.3,141.8,32.3z M128.2,62.6c-0.3-4.4-0.3-9.4-0.2-14.5c0-0.6,0.1-1.3,0.1-1.8c-4.2-1.9-8.3,4.5-9.4,13.4
		c-1.2,10.4,3.5,15.9,6.1,13.4C126.8,71.2,127.9,64.7,128.2,62.6z M158.3,9c-2.2-3.3-10.4,0.7-15.2,17.8
		C155.1,21.2,159.9,11.4,158.3,9z"/>
</g>
</svg>
